<?xml version="1.0" standalone="no"?>
<!DOCTYPE svg PUBLIC "-//W3C//DTD SVG 20010904//EN"
 "http://www.w3.org/TR/2001/REC-SVG-20010904/DTD/svg10.dtd">
<svg version="1.0" xmlns="http://www.w3.org/2000/svg"
 width="120.000000pt" height="160.000000pt" viewBox="0 0 120.000000 160.000000"
 preserveAspectRatio="xMidYMid meet">
<metadata>
Created by potrace 1.10, written by Peter Selinger 2001-2011
</metadata>
<g transform="translate(0.000000,160.000000) scale(0.100000,-0.100000)"
fill="#000000" stroke="none">
<path d="M95 1590 c-4 -6 -23 -7 -46 -4 -49 8 -51 -8 -3 -25 19 -7 38 -19 41
-27 3 -8 13 -14 22 -14 14 1 14 2 -1 14 -23 17 -23 36 1 36 10 0 24 7 31 15
11 13 8 15 -13 15 -14 0 -29 -5 -32 -10z"/>
<path d="M155 1570 c-4 -16 -4 -34 0 -40 4 -6 1 -17 -5 -25 -11 -13 -8 -14 18
-9 28 6 30 4 28 -24 -1 -17 -5 -34 -9 -38 -10 -11 -9 -52 3 -59 6 -4 10 5 10
19 0 14 6 27 13 27 6 1 22 3 34 4 12 1 20 -2 17 -6 -3 -5 -11 -9 -19 -9 -18 0
-28 -34 -20 -70 7 -30 7 -30 58 -24 29 4 53 8 55 9 2 2 0 15 -4 29 -5 22 -9
24 -21 15 -10 -9 -17 -9 -25 -1 -13 13 0 35 18 28 25 -10 42 51 23 86 -8 14
-7 24 3 36 8 9 8 13 1 9 -6 -4 -14 -1 -16 5 -3 8 -6 6 -6 -4 -1 -20 -16 -24
-27 -7 -3 6 0 16 7 21 9 6 2 7 -21 2 -19 -3 -38 -11 -41 -15 -5 -9 -44 -7 -54
2 -2 3 -1 20 4 37 8 25 7 32 -4 32 -7 0 -16 -13 -20 -30z m112 -69 c-4 -16 1
-21 22 -23 29 -3 36 -31 9 -36 -10 -2 -18 1 -18 7 0 6 -13 11 -29 11 -35 0
-43 17 -22 42 21 24 45 24 38 -1z m3 -125 c0 -8 -5 -18 -11 -22 -14 -8 -33 11
-25 25 10 16 36 13 36 -3z"/>
<path d="M358 1585 c19 -8 32 -21 32 -32 1 -16 2 -16 13 -2 7 9 19 18 27 22
10 4 8 6 -7 6 -13 1 -23 6 -23 11 0 6 -17 10 -37 10 l-38 -1 33 -14z"/>
<path d="M458 1593 c6 -2 12 -9 12 -13 0 -19 -52 -59 -84 -65 -33 -7 -33 -7
-25 -48 4 -26 3 -47 -3 -54 -8 -10 -6 -13 5 -13 9 0 19 10 23 23 3 12 14 31
22 42 10 12 11 15 2 8 -18 -17 -30 -16 -30 1 0 8 16 24 36 35 42 25 68 17 33
-11 l-24 -19 30 7 c17 4 32 11 33 16 2 4 11 8 20 8 8 0 23 7 33 16 24 21 57
11 39 -12 -7 -8 -18 -13 -25 -10 -6 2 -17 -5 -24 -16 -8 -13 -19 -18 -32 -15
-10 3 -19 1 -19 -4 0 -5 -7 -9 -15 -9 -8 0 -15 -5 -15 -11 0 -5 5 -7 10 -4 6
3 10 2 10 -3 0 -16 40 -1 51 19 15 28 39 24 37 -6 -2 -19 -8 -25 -25 -25 -12
0 -25 -5 -28 -11 -11 -16 105 -2 125 16 21 19 44 20 36 0 -3 -8 3 -20 14 -28
11 -8 17 -17 13 -20 -3 -4 -2 -7 3 -7 5 0 15 9 22 20 18 29 39 25 47 -8 3 -16
12 -29 20 -29 20 0 19 9 -5 40 -14 17 -17 28 -9 32 5 4 8 13 5 20 -3 9 2 11
15 8 11 -3 18 -11 15 -19 -3 -7 4 -31 15 -53 42 -87 42 -91 8 -103 l-30 -10
22 -24 c17 -18 19 -26 10 -38 -9 -11 -8 -15 3 -19 9 -4 18 -3 20 2 7 11 -5 51
-16 51 -5 0 -6 5 -3 11 4 6 9 8 12 6 2 -3 16 1 30 8 15 8 30 12 34 10 4 -3 9
2 13 10 3 9 12 12 23 8 17 -6 16 -5 -1 15 -15 17 -22 20 -33 10 -11 -9 -16 -9
-23 2 -11 18 -3 31 15 24 10 -4 12 0 8 14 -3 11 -13 22 -24 25 -21 6 -26 27
-6 27 7 0 19 -6 27 -12 12 -11 12 -10 1 4 -7 10 -10 25 -7 34 4 12 2 15 -9 10
-8 -3 -22 -9 -30 -12 -20 -8 -19 10 1 31 15 15 13 47 -3 44 -22 -4 -29 4 -31
31 -2 28 0 30 33 30 28 0 38 -5 44 -22 5 -13 5 -24 0 -26 -17 -7 -9 -20 15
-24 16 -3 27 0 31 10 5 12 9 12 27 -4 12 -11 18 -13 14 -6 -9 14 10 17 19 2 4
-6 10 -8 15 -5 14 9 37 -34 32 -60 -2 -14 -8 -22 -13 -19 -5 3 -9 0 -9 -5 0
-6 7 -11 15 -11 8 0 15 -4 15 -10 0 -5 5 -10 11 -10 5 0 9 8 8 18 -4 39 2 52
22 52 11 0 18 4 14 10 -3 5 -13 6 -21 3 -16 -6 -34 12 -34 35 0 6 7 12 15 12
8 0 15 -7 15 -17 0 -15 2 -14 20 2 15 13 17 22 9 36 -8 16 -5 21 16 29 15 6
31 7 36 4 13 -8 1 -42 -22 -68 -21 -21 -23 -29 -12 -40 12 -11 13 -45 2 -51
-6 -4 -17 1 -24 11 -8 11 -15 15 -15 10 0 -5 7 -18 17 -28 10 -12 12 -18 4
-18 -8 0 -10 -7 -6 -20 4 -11 2 -20 -4 -20 -6 0 -11 -4 -11 -10 0 -21 24 -9
57 28 18 20 33 44 32 52 0 10 -2 11 -6 3 -2 -7 -8 -13 -13 -13 -13 0 -9 70 6
113 8 22 14 45 14 52 0 18 -41 26 -59 12 -8 -7 -12 -7 -9 -2 4 7 -15 11 -53
10 -40 0 -59 -4 -59 -12 0 -17 -19 -16 -26 0 -6 17 -165 19 -176 2 -5 -7 -13
-7 -25 1 -10 6 -43 11 -74 12 l-56 1 3 -44 c4 -39 2 -45 -15 -45 -21 0 -41 52
-22 58 17 6 13 32 -5 32 -8 0 -12 -5 -9 -11 10 -14 -24 -49 -41 -42 -19 7 -18
33 2 33 8 0 12 5 9 10 -3 6 -14 10 -25 10 -13 0 -17 -5 -13 -20 4 -13 0 -20
-10 -20 -17 0 -40 24 -30 33 3 4 -9 7 -28 6 -19 0 -28 -3 -21 -6z m332 -32
c21 -16 22 -21 11 -35 -11 -13 -17 -14 -28 -4 -11 9 -20 8 -43 -5 -18 -11 -31
-14 -35 -7 -9 15 5 32 22 26 10 -4 13 -2 10 8 -6 15 11 36 28 36 5 0 21 -9 35
-19z m180 9 c0 -5 14 -10 30 -10 26 0 30 -4 30 -26 0 -22 -2 -24 -15 -14 -8 6
-19 9 -24 6 -5 -4 -12 -2 -16 4 -4 6 -10 8 -15 5 -5 -3 -14 3 -19 14 -15 27
-14 31 9 31 11 0 20 -4 20 -10z m124 4 c19 -7 3 -44 -19 -44 -16 0 -18 9 -9
34 7 18 7 18 28 10z m-236 -82 c2 -7 -3 -15 -11 -18 -18 -6 -57 12 -57 27 0
14 63 6 68 -9z m-222 -7 c3 -8 3 -19 -1 -25 -10 -16 -35 7 -28 26 7 18 22 18
29 -1z m94 -22 c24 -21 26 -33 4 -33 -18 0 -44 23 -44 39 0 16 17 13 40 -6z
m116 -24 c10 -17 -13 -36 -27 -22 -12 12 -4 33 11 33 5 0 12 -5 16 -11z"/>
<path d="M18 1470 c18 -17 20 -25 11 -42 -9 -16 -8 -19 2 -13 9 6 11 3 6 -8
-3 -10 -2 -17 4 -17 17 0 40 -28 29 -35 -5 -3 -10 -1 -10 6 0 9 -3 10 -10 3
-5 -5 -7 -19 -4 -30 4 -16 11 -20 30 -16 14 2 24 0 24 -7 0 -7 5 -9 11 -6 6 4
17 -1 25 -11 11 -14 17 -15 20 -6 3 6 17 12 30 12 25 0 29 7 16 27 -5 8 -13 9
-22 3 -26 -17 -50 -11 -50 10 0 11 -6 23 -14 26 -8 3 -17 17 -21 32 -4 15 -12
30 -18 34 -19 11 0 21 28 14 18 -5 27 -15 32 -36 3 -17 9 -30 14 -30 12 0 11
37 -1 45 -5 3 -10 13 -10 22 0 27 -33 42 -89 43 l-55 0 22 -20z"/>
<path d="M934 1463 c-8 -2 -9 -15 -4 -37 9 -43 38 -86 54 -80 7 3 21 -5 31
-16 16 -18 17 -24 7 -41 -13 -20 -3 -26 13 -10 6 6 34 11 64 13 34 2 56 8 59
16 3 10 -6 12 -38 7 -25 -4 -46 -2 -49 3 -3 6 -13 12 -21 14 -22 5 -42 27 -35
38 11 18 -7 35 -19 18 -10 -14 -14 -14 -31 -2 -15 11 -17 18 -7 38 12 26 -2
47 -24 39z"/>
<path d="M413 1403 c-3 -8 -3 -16 -1 -18 5 -6 68 17 68 25 0 12 -62 6 -67 -7z"/>
<path d="M643 1367 c15 -13 27 -28 27 -34 0 -7 7 -16 16 -21 13 -7 14 -13 6
-28 -11 -18 -11 -18 -12 1 0 14 -3 16 -12 7 -8 -8 -3 -18 21 -41 17 -16 39
-47 48 -68 18 -42 43 -162 43 -208 0 -16 8 -39 16 -50 14 -18 15 -16 8 31 -4
35 -3 54 6 59 6 4 14 4 18 0 3 -3 0 -10 -7 -14 -8 -6 -11 -16 -6 -31 9 -29 21
-14 29 37 6 40 5 43 -16 40 -23 -2 -23 0 -23 106 0 79 -3 107 -12 107 -7 0
-13 5 -13 10 0 6 -5 10 -10 10 -7 0 -7 -6 0 -19 12 -24 13 -41 1 -41 -11 0
-56 90 -54 105 2 12 -72 65 -90 65 -6 -1 0 -11 16 -23z"/>
<path d="M392 1352 l-22 -19 25 -11 c17 -8 33 -8 52 -1 20 7 28 7 35 -3 6 -9
10 -10 16 -2 4 6 14 14 22 17 8 3 2 5 -15 5 -51 1 -75 6 -84 20 -6 10 -12 8
-29 -6z"/>
<path d="M366 1298 c3 -4 -2 -8 -10 -8 -8 0 -18 -5 -22 -12 -5 -8 -2 -9 10 -5
33 13 29 -22 -7 -56 l-35 -33 13 -49 c8 -30 15 -44 19 -35 3 8 13 37 23 64 10
27 30 58 45 69 30 23 130 36 150 20 19 -15 88 -4 88 13 0 17 1 17 -38 3 -25
-9 -36 -8 -53 5 -18 12 -26 13 -37 4 -8 -7 -16 -8 -20 -2 -4 5 -11 10 -17 11
-5 1 -18 5 -27 8 -10 4 -18 3 -18 -3 0 -5 -12 -18 -27 -28 -22 -14 -25 -14
-15 -2 9 11 10 18 2 23 -6 3 -8 10 -6 14 3 4 -1 8 -9 8 -8 0 -12 -4 -9 -9z"/>
<path d="M83 1260 c-7 -24 -15 -34 -26 -32 -10 2 -17 -3 -17 -11 0 -9 10 -12
35 -9 37 4 40 13 25 62 -7 24 -7 24 -17 -10z"/>
<path d="M293 1284 c11 -12 -13 -43 -28 -38 -10 4 -15 0 -15 -15 0 -12 -6 -21
-15 -21 -8 0 -15 8 -15 18 0 21 -36 59 -46 49 -4 -4 1 -17 9 -31 15 -23 15
-25 -1 -28 -10 -3 0 -10 27 -19 25 -8 46 -20 48 -26 6 -16 -28 -25 -43 -12
-11 9 -14 7 -14 -8 0 -11 -3 -22 -6 -25 -10 -11 -43 4 -49 23 -5 15 -16 19
-49 19 -23 0 -47 5 -52 10 -11 11 -44 3 -44 -10 0 -5 26 -12 57 -16 72 -8 80
-13 55 -30 -11 -7 -22 -22 -25 -34 -4 -17 -2 -18 14 -9 15 7 23 6 35 -5 13
-14 17 -13 39 6 14 12 25 27 25 34 0 12 31 24 63 24 13 0 18 -7 17 -22 -4 -43
0 -68 10 -68 13 0 13 93 -1 107 -18 18 -13 69 10 102 20 28 20 31 5 31 -10 0
-14 -3 -11 -6z"/>
<path d="M916 1219 c-4 -27 -9 -56 -12 -64 -4 -10 0 -15 10 -15 12 0 15 6 10
25 -3 14 -2 31 4 38 19 23 23 54 8 60 -10 4 -15 -7 -20 -44z"/>
<path d="M950 1144 c0 -21 4 -33 10 -29 6 3 10 19 10 36 0 16 -4 29 -10 29 -5
0 -10 -16 -10 -36z"/>
<path d="M820 1151 c-17 -33 -12 -46 20 -46 18 0 26 4 20 10 -6 5 -10 19 -10
32 0 28 -16 30 -30 4z"/>
<path d="M202 1092 l-20 -18 25 -22 c14 -12 31 -22 38 -22 22 0 39 -38 24 -56
-13 -16 -39 -2 -39 23 0 8 -4 11 -10 8 -5 -3 -18 -2 -27 4 -13 7 -23 5 -35 -6
-16 -14 -21 -14 -52 1 -19 9 -38 21 -41 26 -3 6 -19 10 -36 10 -22 0 -29 -5
-29 -20 0 -15 7 -20 26 -20 14 0 34 -5 45 -10 21 -12 26 -39 7 -41 -7 -1 -20
-3 -28 -4 -8 -1 -23 -3 -32 -4 -12 -1 -18 -9 -18 -26 0 -27 -2 -27 98 -28 34
0 62 -5 62 -10 0 -5 6 -4 13 2 8 6 17 8 21 4 4 -4 31 -8 60 -10 l54 -2 -10 42
c-5 23 -7 59 -5 79 4 28 2 35 -9 31 -8 -3 -14 1 -14 11 0 9 -8 16 -20 16 -23
0 -27 29 -8 48 20 20 -16 15 -40 -6z m38 -141 c14 -4 26 -14 28 -23 4 -21 -45
-32 -82 -18 -17 6 -25 6 -21 0 8 -13 -4 -13 -44 1 -31 11 -31 12 -15 30 18 20
82 25 134 10z"/>
<path d="M324 1068 c-10 -16 -13 -168 -2 -174 4 -3 9 7 10 23 2 46 3 163 1
163 -1 0 -5 -5 -9 -12z"/>
<path d="M932 1050 c5 -24 38 -25 38 -1 0 14 -6 19 -20 18 -13 -1 -19 -7 -18
-17z"/>
<path d="M655 1045 c-5 -2 -22 -6 -37 -9 -49 -11 -30 -22 31 -18 33 2 67 -1
80 -7 22 -12 27 -5 12 18 -5 7 -13 11 -19 7 -6 -3 -13 -2 -17 4 -6 10 -29 12
-50 5z"/>
<path d="M385 1027 c-8 -4 -15 -15 -15 -23 0 -11 4 -12 18 -5 10 5 42 11 70
12 36 2 52 7 52 16 0 10 -14 13 -55 11 -31 -2 -62 -7 -70 -11z"/>
<path d="M408 984 c-16 -8 -28 -22 -28 -31 0 -14 4 -13 23 5 27 26 37 28 37 7
0 -8 6 -15 13 -15 8 0 7 -4 -3 -10 -12 -8 -9 -10 12 -10 29 0 54 31 44 56 -7
18 -63 18 -98 -2z"/>
<path d="M607 994 c-14 -14 -6 -44 14 -55 20 -10 21 -9 15 23 -6 29 -5 31 7
16 17 -21 33 -23 41 -5 5 10 7 10 12 0 3 -7 15 -13 27 -13 20 0 20 0 1 15 -18
15 -18 15 0 8 12 -4 17 -3 13 4 -7 11 -119 17 -130 7z"/>
<path d="M1180 985 c-7 -8 -21 -15 -31 -15 -19 0 -26 -20 -12 -33 3 -4 8 -47
9 -96 1 -49 8 -99 14 -112 10 -18 10 -21 -2 -16 -13 4 -14 -6 -10 -64 3 -45 1
-74 -7 -83 -9 -11 -9 -16 -1 -21 7 -4 10 -16 7 -26 -7 -26 26 -44 43 -24 9 11
9 15 1 15 -16 0 -14 97 2 103 10 4 10 6 0 6 -16 1 -17 77 -2 87 8 5 7 10 -4
16 -13 7 -16 28 -15 108 0 71 4 100 12 100 7 0 13 16 14 35 3 39 0 42 -18 20z"/>
<path d="M927 954 c-11 -14 -25 -23 -33 -20 -7 3 -16 0 -20 -5 -3 -6 -18 -8
-33 -4 -14 4 -23 4 -20 0 4 -3 3 -21 -1 -40 -8 -38 9 -55 30 -29 7 8 9 14 4
14 -4 0 1 6 11 14 25 18 35 12 28 -17 -5 -22 -5 -22 10 -2 24 30 39 8 31 -44
-6 -36 -9 -41 -27 -35 -17 5 -19 3 -14 -17 4 -13 7 -28 7 -33 0 -4 7 -5 17 -2
16 7 57 -26 46 -37 -3 -3 5 -3 16 0 37 10 35 31 -3 24 -4 -1 -14 3 -21 9 -14
12 -9 107 8 128 8 10 7 16 -2 21 -7 5 -11 22 -9 42 3 33 4 34 54 37 48 3 51 1
75 -34 13 -21 31 -40 39 -42 13 -5 13 -3 1 11 -7 9 -11 30 -9 46 5 36 -8 41
-102 41 -58 -1 -67 -3 -83 -26z"/>
<path d="M1000 933 c0 -6 -3 -18 -6 -27 -4 -10 -1 -16 9 -16 23 0 28 15 12 36
-8 10 -15 14 -15 7z"/>
<path d="M465 867 c-24 -15 -48 -37 -40 -37 3 0 -1 -13 -10 -29 -13 -26 -13
-33 0 -65 17 -39 20 -76 6 -76 -4 0 -13 15 -19 33 -8 26 -10 28 -11 9 -1 -25
53 -115 87 -146 28 -25 114 -26 162 -2 35 17 92 85 105 125 7 23 16 26 30 12
6 -5 27 -16 47 -24 l37 -15 -2 74 -1 74 -31 0 c-17 0 -35 4 -41 10 -6 6 -8 -5
-6 -31 5 -46 -21 -87 -43 -69 -9 8 -14 5 -18 -10 -4 -17 -3 -19 9 -9 18 15 18
-2 -1 -27 -11 -14 -15 -16 -15 -4 -1 12 -3 11 -14 -3 -11 -14 -15 -15 -19 -5
-3 7 -5 4 -5 -7 2 -40 -2 -56 -13 -50 -6 4 -17 -2 -25 -14 -20 -27 -49 -27
-68 1 -13 18 -16 19 -16 5 0 -9 -3 -17 -7 -18 -5 0 -18 -2 -29 -4 -29 -6 -65
32 -44 45 9 6 17 5 21 -2 4 -7 9 -7 13 1 8 12 -21 28 -31 17 -13 -12 -32 45
-26 79 3 20 8 34 12 32 54 -30 80 -35 122 -26 24 6 53 15 64 21 12 7 20 7 22
1 2 -6 10 -18 17 -28 12 -17 14 -15 20 20 5 23 3 42 -3 48 -6 6 -11 21 -11 32
0 22 -55 83 -66 73 -3 -3 9 -22 26 -42 35 -39 26 -55 -21 -37 -29 10 -159 2
-159 -10 0 -12 82 -32 89 -22 3 5 28 10 55 12 57 3 59 -12 5 -41 -38 -21 -116
-20 -129 3 -5 7 -21 18 -37 25 -21 9 -23 13 -9 13 15 1 16 4 7 15 -8 9 -8 16
-2 20 15 10 53 66 44 65 -4 0 -17 -6 -28 -12z m352 -147 c-12 -20 -47 -28 -47
-10 0 5 6 7 14 4 9 -3 17 3 21 15 3 12 11 19 16 16 5 -3 3 -14 -4 -25z"/>
<path d="M25 850 c-3 -11 -11 -20 -16 -20 -5 0 -9 -16 -9 -35 0 -19 5 -35 11
-35 6 0 9 -6 6 -14 -5 -13 0 -13 38 -1 31 9 57 10 82 4 21 -4 46 -6 55 -3 10
3 26 0 37 -5 13 -7 22 -8 26 -1 3 5 22 10 41 10 32 0 35 2 29 23 -21 74 -48
80 -65 15 -13 -46 -34 -46 -38 0 -4 44 -39 45 -54 2 -12 -36 -34 -34 -31 2 1
18 -6 29 -22 36 -23 11 -25 9 -36 -28 -21 -69 -52 -47 -42 29 6 43 -1 55 -12
21z"/>
<path d="M1079 817 c-8 -7 -27 -17 -43 -21 -21 -5 -26 -11 -20 -24 4 -9 9 -31
11 -48 5 -31 6 -32 46 -27 23 3 44 8 47 10 8 7 -25 23 -37 18 -7 -3 -20 -8
-28 -11 -10 -4 -15 0 -15 10 0 9 11 21 25 26 14 5 30 22 36 36 12 33 -2 52
-22 31z"/>
<path d="M340 742 c0 -12 -4 -22 -9 -22 -5 0 -11 -9 -14 -21 -5 -18 -2 -20 21
-14 27 6 27 6 -7 -29 -33 -34 -38 -62 -6 -36 8 7 15 8 15 2 0 -5 -10 -17 -22
-26 -17 -13 -18 -16 -5 -12 10 3 15 2 12 -4 -3 -6 -12 -10 -20 -10 -7 0 -16
-7 -19 -16 -9 -23 -8 -24 14 -24 11 0 20 -5 20 -11 0 -7 -10 -9 -25 -7 -18 4
-25 1 -26 -11 0 -9 -2 -25 -4 -36 -14 -90 -14 -113 1 -119 9 -3 17 -6 19 -6 1
0 6 36 9 81 4 44 9 79 11 77 3 -2 13 -158 15 -221 0 -11 5 -15 11 -11 6 3 9
22 7 40 -3 28 -1 34 14 34 10 0 18 7 18 16 0 17 35 16 35 -1 1 -6 8 -26 17
-45 22 -48 59 -160 62 -188 1 -12 8 -28 14 -34 7 -7 12 -30 13 -52 0 -36 1
-38 10 -17 20 51 8 183 -21 223 -11 15 -20 31 -20 36 0 4 -13 29 -30 55 -16
26 -30 59 -30 72 0 31 -7 31 -36 0 -13 -14 -30 -25 -39 -25 -13 0 -15 14 -10
103 2 56 10 120 16 142 16 53 16 112 1 127 -9 9 -12 7 -12 -10z"/>
<path d="M80 694 c0 -9 15 -12 47 -11 64 3 67 23 3 23 -33 0 -50 -4 -50 -12z"/>
<path d="M897 697 c-2 -7 -2 -18 0 -25 4 -10 8 -10 19 -1 8 6 14 15 14 19 0
14 -28 19 -33 7z"/>
<path d="M507 673 c5 -12 11 -15 29 -12 4 0 10 -5 15 -13 7 -10 15 -9 44 6 19
11 33 22 30 24 -3 3 -32 6 -64 6 -43 1 -57 -2 -54 -11z"/>
<path d="M1023 667 c-3 -5 -16 -7 -29 -4 -14 2 -27 0 -30 -5 -3 -4 -10 -6 -15
-3 -5 4 -9 -3 -9 -14 0 -11 5 -23 10 -26 6 -3 10 0 10 8 0 15 55 31 71 21 6
-3 16 0 24 6 11 9 15 9 15 1 0 -6 6 -11 14 -11 9 0 12 7 9 18 -5 20 -59 27
-70 9z"/>
<path d="M240 637 c-85 -34 -118 -55 -137 -85 -10 -15 -23 -30 -30 -35 -7 -4
-9 -15 -6 -24 4 -11 3 -14 -5 -9 -13 8 -15 3 -16 -66 -1 -27 2 -48 6 -48 5 0
8 17 8 38 0 23 12 57 30 89 31 53 50 73 50 52 0 -7 6 -4 14 7 8 10 23 19 33
19 11 0 17 7 17 18 -2 14 1 15 12 6 18 -15 18 -29 -1 -29 -8 0 -15 -7 -15 -15
0 -8 -6 -15 -12 -15 -23 -1 -65 -46 -77 -83 -14 -40 -26 -51 -16 -14 5 20 5
20 -6 4 -18 -30 -23 -133 -9 -180 22 -68 27 -63 32 30 3 48 13 114 23 145 17
52 22 58 52 64 26 5 33 11 33 30 0 14 6 24 14 24 21 0 25 23 7 37 -14 11 -14
14 -1 23 11 7 18 6 26 -4 8 -12 12 -9 21 15 6 16 11 29 10 28 -1 0 -27 -10
-57 -22z"/>
<path d="M750 634 c0 -85 -49 -172 -91 -161 -11 3 -17 1 -14 -4 3 -4 -6 -11
-20 -15 -14 -3 -25 -9 -25 -13 0 -7 -11 -7 -52 -2 -3 1 -35 29 -71 64 -46 44
-67 73 -74 102 l-11 40 0 -35 c-1 -19 4 -64 11 -100 10 -54 16 -65 32 -65 11
0 46 -9 77 -20 65 -22 98 -16 171 32 22 13 40 23 42 21 2 -2 -2 -25 -9 -52
-12 -47 -11 -96 3 -96 3 0 6 15 5 33 0 17 6 40 14 49 8 9 11 22 7 27 -3 6 -3
11 2 11 4 0 9 47 11 105 2 58 1 105 -2 105 -3 0 -6 -12 -6 -26z"/>
<path d="M4 610 c1 -29 5 -35 24 -34 12 0 22 -3 22 -8 0 -5 9 -4 20 2 22 12
28 54 8 48 -7 -3 -13 -10 -13 -16 0 -7 -3 -12 -7 -12 -5 0 -17 0 -27 0 -14 0
-21 9 -24 28 -4 20 -4 18 -3 -8z"/>
<path d="M828 609 c9 -11 23 -19 32 -18 9 0 10 2 3 5 -7 3 -10 11 -7 17 2 7
-6 13 -20 13 -22 2 -23 1 -8 -17z"/>
<path d="M890 597 c0 -31 27 -57 36 -34 9 25 0 51 -19 55 -12 3 -17 -3 -17
-21z"/>
<path d="M784 533 c2 -43 4 -88 5 -100 1 -13 5 -23 11 -23 5 0 8 15 6 33 -2
17 -4 62 -5 100 -1 37 -5 67 -11 67 -6 0 -9 -30 -6 -77z"/>
<path d="M838 520 c15 -68 33 -91 24 -30 -4 27 -2 30 22 30 29 0 33 11 11 30
-12 10 -16 9 -21 -4 -9 -24 -21 -19 -33 14 -17 50 -18 34 -3 -40z"/>
<path d="M946 578 c-3 -7 -9 -27 -14 -45 -11 -33 -7 -43 16 -43 12 0 12 2 1
17 -12 15 -12 16 6 9 11 -5 31 -11 45 -14 14 -3 34 -11 45 -18 26 -18 45 -18
45 2 0 11 6 14 20 9 48 -15 13 13 -65 53 -94 47 -94 47 -99 30z"/>
<path d="M12 518 c-15 -15 -16 -48 -2 -48 6 0 10 10 10 23 0 18 2 19 10 7 8
-12 10 -11 10 8 0 24 -10 28 -28 10z"/>
<path d="M236 489 c3 -6 -3 -24 -15 -40 -23 -31 -27 -44 -10 -33 8 4 9 -3 6
-22 -5 -26 -19 -114 -33 -211 -4 -30 -7 -32 -34 -26 -19 3 -30 1 -30 -6 0 -6
15 -12 33 -12 17 -1 46 -2 62 -3 17 0 29 -6 28 -11 -1 -6 -4 -24 -7 -40 -5
-27 -4 -26 13 9 11 22 22 72 26 110 3 39 8 83 11 99 5 24 3 27 -20 27 -14 0
-26 -5 -26 -11 0 -5 5 -7 11 -3 8 5 10 -17 6 -77 -3 -46 -6 -84 -6 -85 -1 0
-11 0 -23 1 -21 2 -23 6 -20 61 2 32 12 108 23 168 22 129 21 116 8 116 -5 0
-7 -5 -3 -11z"/>
<path d="M890 461 c0 -12 -8 -21 -22 -24 -21 -4 -20 -4 3 -6 29 -1 37 -20 35
-85 -1 -24 3 -36 13 -36 9 0 12 9 7 33 -3 17 -8 56 -12 85 -6 49 -24 74 -24
33z"/>
<path d="M949 475 c-3 -2 0 -44 7 -92 16 -113 18 -260 3 -269 -8 -5 -8 -8 0
-13 8 -5 8 -22 2 -54 -8 -45 -8 -47 15 -47 13 0 24 5 24 10 0 6 -4 10 -10 10
-5 0 -10 7 -10 15 0 8 4 15 10 15 6 0 6 9 0 24 -7 20 -5 25 13 30 19 6 20 7 6
16 -13 8 -17 27 -18 87 -2 79 -5 122 -18 203 -3 25 -5 51 -4 58 2 12 -11 17
-20 7z"/>
<path d="M1026 397 c3 -32 6 -97 6 -145 l0 -87 12 65 c6 37 7 68 2 71 -4 4 0
11 10 17 17 9 17 11 1 35 -12 19 -13 27 -4 30 9 3 8 9 -4 23 -9 10 -19 26 -23
34 -3 8 -3 -11 0 -43z"/>
<path d="M440 415 c0 -14 5 -25 11 -25 5 0 8 -4 5 -8 -3 -5 9 -35 25 -68 16
-32 27 -48 24 -34 -4 14 -9 37 -12 53 -3 15 -10 27 -15 27 -5 0 -7 12 -4 28 5
20 2 30 -14 40 -18 11 -20 10 -20 -13z"/>
<path d="M756 370 c-5 -31 -12 -43 -31 -50 -14 -5 -25 -13 -25 -18 0 -5 -19
-19 -41 -31 -54 -31 -83 -64 -90 -107 -5 -32 -4 -34 20 -33 14 0 35 4 46 9 18
8 18 9 -5 9 -46 2 -53 15 -26 45 13 16 29 25 35 22 7 -4 11 1 11 13 0 11 5 23
11 27 8 5 10 -11 7 -55 l-4 -61 33 0 c37 0 45 17 11 22 -19 2 -23 10 -25 43
-1 33 4 45 28 68 17 15 38 27 47 28 10 0 12 3 5 5 -7 3 -9 12 -6 20 3 7 10 11
16 7 5 -3 7 -1 4 4 -4 6 0 16 8 23 13 11 15 9 15 -16 0 -16 0 -58 -1 -94 0
-42 -5 -70 -15 -81 -13 -15 -12 -16 11 -12 25 5 25 7 25 97 0 50 5 98 10 106
7 11 10 6 10 -22 0 -26 5 -38 18 -41 16 -4 16 -5 0 -6 -16 -1 -18 -12 -18 -85
0 -46 -3 -91 -6 -100 -4 -12 0 -16 15 -16 13 0 21 -6 21 -16 0 -13 -3 -14 -14
-5 -16 13 -26 -4 -26 -46 0 -20 4 -24 23 -21 18 2 23 11 28 53 7 53 2 299 -6
325 -4 12 -15 15 -45 12 -22 -2 -46 1 -54 7 -11 9 -15 3 -20 -29z"/>
<path d="M14 365 c3 -8 1 -15 -5 -15 -6 0 -2 -16 10 -36 21 -35 29 -90 12 -80
-5 3 -7 14 -4 24 2 10 -3 24 -12 32 -14 11 -15 9 -13 -19 1 -17 6 -31 10 -31
4 0 14 -11 23 -23 12 -19 13 -30 4 -56 -9 -25 -14 -29 -25 -20 -23 19 -16 1
11 -25 21 -21 23 -29 15 -50 -7 -21 -6 -26 5 -26 9 0 15 9 15 22 0 34 13 12
14 -24 1 -18 6 -32 11 -31 15 4 18 159 4 185 -12 22 -12 22 -19 3 -5 -13 -10
4 -15 50 -7 68 -27 135 -41 135 -3 0 -4 -7 0 -15z m66 -221 c0 -8 -4 -12 -10
-9 -5 3 -7 0 -4 -8 7 -21 -11 -30 -25 -13 -9 11 -8 18 4 30 21 20 35 20 35 0z"/>
<path d="M658 331 c-29 -44 -26 -51 10 -23 16 12 23 26 20 42 -3 20 -5 19 -30
-19z"/>
<path d="M500 339 c0 -4 10 -13 23 -21 19 -13 28 -13 69 -1 71 20 65 30 -17
29 -41 -1 -75 -4 -75 -7z"/>
<path d="M1139 331 c8 -5 11 -16 8 -25 -4 -9 -3 -16 2 -16 11 0 41 34 41 46 0
5 -5 2 -11 -6 -8 -11 -12 -12 -16 -2 -2 6 -12 12 -21 12 -14 0 -14 -2 -3 -9z"/>
<path d="M380 284 c0 -23 6 -41 18 -50 14 -11 15 -15 3 -26 -12 -11 -13 -10
-8 5 8 21 -9 23 -17 2 -4 -11 3 -19 21 -26 34 -13 40 -5 24 34 -7 18 -13 38
-14 45 0 6 -4 12 -8 12 -5 0 -6 6 -3 14 3 8 1 17 -5 21 -7 4 -11 -7 -11 -31z"/>
<path d="M1158 276 c-16 -12 -54 -93 -47 -101 2 -2 23 16 47 39 36 36 41 44
30 58 -11 14 -16 15 -30 4z"/>
<path d="M1074 228 c-5 -24 -7 -56 -5 -71 2 -22 -2 -30 -18 -34 -12 -3 -21 -9
-21 -12 0 -16 13 -19 36 -11 27 11 30 1 15 -62 -8 -34 -7 -38 10 -38 10 0 19
5 19 12 0 6 3 9 6 5 9 -8 84 31 84 44 0 5 -12 0 -28 -11 -36 -26 -72 -34 -72
-14 0 8 16 37 36 65 19 28 34 55 32 61 -2 6 -16 -9 -31 -33 -25 -42 -40 -32
-17 12 7 12 7 19 1 19 -5 0 -13 -9 -16 -20 -3 -11 -11 -20 -16 -20 -9 0 -4
104 6 138 3 6 0 12 -4 12 -5 0 -13 -19 -17 -42z"/>
<path d="M307 216 c-6 -16 40 -29 49 -15 3 5 -2 9 -10 9 -9 0 -16 5 -16 10 0
15 -17 12 -23 -4z"/>
<path d="M290 141 c0 -11 35 -18 95 -20 22 -1 48 -4 58 -7 17 -5 24 10 9 20
-17 11 -162 17 -162 7z"/>
<path d="M176 84 c-4 -19 -15 -38 -24 -41 -18 -7 -32 -22 -32 -35 0 -14 40 -9
65 8 24 15 51 11 40 -6 -3 -5 53 -9 129 -9 103 0 134 2 130 12 -3 8 -24 11
-67 9 -34 -2 -94 1 -132 8 -39 6 -78 11 -87 11 -21 0 -21 3 -9 47 5 17 6 32 1
32 -4 0 -11 -16 -14 -36z"/>
<path d="M557 91 c-4 -16 0 -21 16 -22 12 -1 26 -1 31 0 4 1 6 -15 3 -36 l-5
-38 11 37 c7 27 16 38 30 38 16 0 19 -6 15 -35 -2 -19 0 -35 4 -35 4 0 8 16 8
35 0 32 3 35 29 35 62 0 121 13 121 26 0 15 -45 20 -54 5 -3 -4 -28 -7 -56 -5
-27 1 -50 0 -50 -4 0 -13 -81 -7 -89 7 -6 9 -10 7 -14 -8z"/>
<path d="M800 51 c0 -5 -7 -8 -16 -7 -9 0 -19 -6 -21 -14 -4 -13 -3 -13 6 0 9
13 11 13 11 -2 0 -9 -6 -19 -12 -21 -7 -3 -1 -5 14 -4 22 1 26 6 26 29 -1 25
-8 42 -8 19z"/>
</g>
</svg>
